<?xml version="1.0" encoding="utf-8"?>
<!-- Generator: Adobe Illustrator 27.5.0, SVG Export Plug-In . SVG Version: 6.00 Build 0)  -->
<svg version="1.1" id="Capa_1" xmlns="http://www.w3.org/2000/svg" xmlns:xlink="http://www.w3.org/1999/xlink" x="0px" y="0px"
	 viewBox="0 0 1820 2474" style="enable-background:new 0 0 1820 2474;" xml:space="preserve">
<g>
	<g>
		<g>
			<g>
				<path style="fill:#34AC62;" d="M909.818,69.451c-391.214,0-473.192,392.621-463.712,535.587
					c9.481,142.966,61.24,280.121,126.599,407.625c38.206,74.531,82.09,147.678,143.383,204.753
					c39.227,36.528,78.812,79.585,155.383,90.486c-58.35,41.531-95.259,109.754-100.622,181.057
					c-2.803,37.276,4.168,74.117,18.141,108.654c14.186,35.063,34.001,67.339,54.234,99.166
					c39.451,62.06,83.883,127.512,80.812,204.335c-3.494,87.421-60.516,161.553-103.339,233.881
					c-21.84,36.888-40.478,76.511-50.754,118.274c-9.638,39.174-11.672,81.565,2.597,119.905c3.533,9.491,7.926,18.609,13.15,27.283
					c4.33,7.192,15.627,0.634,11.276-6.591c-44.173-73.355-13.213-164.39,24.348-233.509
					c40.181-73.94,96.924-142.345,112.193-227.296c6.858-38.152,3.585-76.657-8.983-113.277
					c-11.833-34.478-30.148-66.252-49.382-97.049c-38.238-61.224-84.976-123.963-91.134-198.339
					c-6.042-72.977,24.991-147.71,80.853-195.028c3.672-3.111,7.466-6.059,11.351-8.884c-1.192,6.36-0.014,13.161,3.108,18.868
					c2.006,3.668,4.771,6.855,7.984,9.532c-7.876,9.423-13.589,21.737-16.891,32.749c-4.337,14.463-5.755,29.615-7.152,44.649
					c-0.02,0.227-0.035,0.459-0.053,0.69c-0.293,0.033-0.594,0.043-0.875,0.118c-6.17,1.64-5.186,10.149-1.217,13.524
					c2.459,2.091,5.636,3.105,8.745,3.971c16.066,4.47,32.807,6.286,49.482,6.208c8.638-0.041,17.339-0.601,25.784-2.507
					c6.503-1.467,16.966-3.706,21.736-8.645c1.589-1.645,2.642-3.914,2.428-6.19c-0.215-2.277-1.893-4.456-4.143-4.864
					c-0.143-0.026-0.287,0.014-0.43,0.002c0.719-25.727-8.228-51.12-18.754-74.807c-1.219-2.745-2.54-5.538-4.15-8.084
					c0.496-0.507,1.027-0.993,1.484-1.521c1.715-1.982,3.154-4.18,4.314-6.519c4.627-9.329,4.672-20.542,0.899-29.797
					c76.347-10.981,115.867-53.97,155.036-90.444c61.294-57.075,105.178-130.221,143.383-204.753
					c65.36-127.504,117.118-264.659,126.599-407.625C1383.011,462.072,1301.032,69.451,909.818,69.451z"/>
			</g>
			<g>
				<g>
					<path style="fill:#00A558;" d="M909.818,69.451c-391.215,0-473.193,392.621-463.713,535.587
						c9.481,142.966,61.24,280.121,126.599,407.625c38.205,74.531,82.09,147.678,143.383,204.753
						c40.902,38.088,82.167,83.297,165.373,91.725c-0.001,0-0.001-0.001-0.002-0.001l0.006,0.001
						c-0.665,0.848-1.254,1.749-1.827,2.66c19.449,8.273,52.752-2.145,57.278,11.867c3.157,9.772-5.091,17.986-12.976,21.465
						c-10.641,4.694-23.828,3.904-34.43-0.537c-3.807-1.595-8.157-4.577-11.62-8.298c0.423,1.043,0.891,2.067,1.43,3.053
						c2.006,3.668,4.759,6.872,7.972,9.548c-2.476,2.965-4.714,6.234-6.755,9.641c5.369,8.047,20.621,7.81,28.898,8.021
						c4.961,0.126,9.983-0.03,14.922,0.523c6.586,0.738,11.752,4.214,15.265,9.806c4.003,6.372,5.729,14.192,6.816,21.537
						c1.227,8.293,0.335,16.417-6.37,22.123c-6.341,5.397-15.097,8.092-23.056,9.971c-9.412,2.221-19.183,2.964-28.822,2.179
						c-1.342-0.109-2.699-0.288-4.053-0.449c3.832,0.622,7.704,1.068,11.501,1.484c-6.919-0.759-14.102-1.546-20.802-3.501
						c-3.58-1.045-8.649-4.17-12.504-3.146c-0.505,0.134-0.889,0.378-1.3,0.597c52.353,23.108,94.963,1.609,97.265,8.996
						c2.302,7.387-34.564,16.952-88.307,7.931c16.028,4.445,32.721,6.255,49.352,6.177c8.639-0.041,17.339-0.601,25.785-2.507
						c6.502-1.467,16.965-3.706,21.736-8.645c1.589-1.645,2.643-3.914,2.428-6.19c-0.215-2.277-1.893-4.456-4.143-4.864
						c-0.143-0.026-0.286-0.021-0.429-0.034c0.71-25.714-8.232-51.095-18.754-74.771c-1.219-2.744-2.54-5.538-4.15-8.084
						c0.497-0.507,1.027-0.993,1.484-1.521c1.715-1.982,3.154-4.18,4.314-6.519c4.627-9.329,4.672-20.542,0.899-29.797
						c0.002-0.001,0.003-0.001,0.004-0.001l-0.004,0.001c76.348-10.981,115.867-53.97,155.036-90.444
						c61.293-57.075,105.177-130.221,143.383-204.753c65.36-127.504,117.119-264.659,126.599-407.625
						C1383.011,462.072,1301.032,69.451,909.818,69.451z M1189.983,600.821c-35.441,326.911-247.982,490.373-406.974,455.99
						c-149.764-32.387-230.647-209.917-252.418-266.976c-25.177-65.982-41.493-135.749-48.13-206.025
						c-6.174-65.369-4.131-132.542,15.937-195.515c17.495-54.894,47.301-105.767,86.54-148.036
						c38.098-41.04,85.36-73.995,138.026-93.589c52.732-19.618,109.755-23.565,165.409-14.654
						C1144.902,173.088,1202.416,486.142,1189.983,600.821z"/>
				</g>
			</g>
			<g>
				<path style="fill:#5BB570;" d="M881.814,1384.95L881.814,1384.95c-2.215,4.448-3.699,9.26-4.374,14.183
					c-0.48,3.498-0.494,7.285,1.366,10.285c1.214,1.959,3.123,3.395,5.129,4.531c7.085,4.012,15.565,4.715,23.701,4.415
					c3.15-0.116,6.322-0.373,9.348-1.252c4.309-1.25,8.24-3.772,11.172-7.166c3.816-4.417,5.844-10.539,5.025-16.359
					c-0.891-6.334-5.37-10.65-10.453-14.082c-7.508-5.068-15.194-3.378-23.681-2.668
					C891.408,1377.475,885.63,1377.286,881.814,1384.95z"/>
			</g>
			<g>
				<path style="fill:#5BB570;" d="M883.173,1335.254c3.852,3.988,8.983,6.144,14.339,7.299c8.635,1.864,17.392,1.173,25.068-3.306
					c4.903-2.859,14.76-10.911,7.757-16.847c-3.062-2.595-8.167-2.375-11.908-2.261c-4.204,0.129-8.38,0.688-12.582,0.835
					c-5.2,0.182-10.454-0.817-15.612-1.36c-3.044-0.321-9.039-1.819-11.556,0.707c-0.681,0.683-1.049,1.629-1.199,2.581
					c-0.15,0.953-0.1,1.924-0.049,2.887c0.085,1.615,1.342,3.534,2.175,4.92C880.6,1332.363,881.835,1333.869,883.173,1335.254z"/>
			</g>
			<g>
				<g>
					<path style="fill:#009E4A;" d="M1196.886,168.58c69.785,64.935,123.378,183.501,127.628,335.677
						c8.118,290.601-178.722,684.743-414.696,710.582c-160.004,17.521-250.682-78.628-277.609-105.633
						c-4.809-4.823-9.432-9.789-13.97-14.818c27.682,44.925,59.323,87.153,97.849,123.027
						c45.304,42.187,91.034,93.126,193.731,93.126c102.696,0,148.426-50.939,193.729-93.126
						c61.293-57.075,105.177-130.221,143.383-204.753c65.36-127.504,117.119-264.659,126.599-407.625
						C1379.985,507.694,1343.983,294.658,1196.886,168.58z"/>
				</g>
			</g>
			<g>
				<path style="fill:#5BB570;" d="M670.214,838.133c-97.841-38.928-132.541-168.427-140.831-209.57
					c-9.586-47.577-12.737-96.715-9.271-145.101c3.225-45.007,12.223-90.307,32.963-130.716
					c18.08-35.224,44.05-66.329,75.438-90.532c30.475-23.499,66.245-40.479,104.164-47.791c37.966-7.321,77.064-3.533,113.777,8.815
					c169.223,56.917,172.723,275.627,151.297,351.949C936.674,792.755,774.084,879.46,670.214,838.133z"/>
			</g>
			<g>
				<g>
					<g>
						<path style="fill:#008D40;" d="M889.128,1312.057c5.592,0.297,11.141,1.042,16.748,1.174
							c5.673,0.134,11.345-0.267,17.014-0.432c4.82-0.14,9.874-0.49,14.636,0.458c8.558,1.705,12.073,8.844,10.962,17.114
							c-0.753,5.613-3.355,10.979-6.926,15.559c-7.178,7.183-18.104,12.076-28.144,12.134c-5.561,0.032-11.126-1.063-16.259-3.199
							c-3.556-1.48-6.893-3.516-9.853-5.982c-0.54,0.646-1.025,1.354-1.542,2.026c4.802,6.72,16.418,8.479,23.708,9.201
							c5.057,0.501,9.908,0.091,14.96-0.316c5.957-0.479,11.847-0.094,16.872,3.453c9.461,6.681,14.39,18.495,17.636,29.197
							c2.203,7.265,3.88,14.783,5.304,22.336c-2.05-20.977-9.641-41.562-18.28-61c-1.219-2.744-2.54-5.538-4.15-8.084
							c-0.002,0.002-0.004,0.003-0.005,0.005c0.51-0.501,1.031-0.996,1.49-1.526c1.715-1.982,3.154-4.18,4.314-6.519
							c4.627-9.329,4.672-20.542,0.899-29.797c0.002-0.001,0.003-0.001,0.004-0.001c-11.959,1.72-24.79,2.682-38.697,2.682
							c-9.978,0-19.404-0.494-28.359-1.401l0.006,0.001c-0.411,0.525-0.763,1.09-1.13,1.645
							C882.645,1312.167,887.045,1311.947,889.128,1312.057z"/>
					</g>
					<g>
						<path style="fill:#008D40;" d="M965.149,1428.586c-1.302-0.236-2.632,0.106-3.911,0.445
							c-6.322,1.677-23.662,5.59-42.327,5.968c-7.771,0.158-15.545-0.417-23.271-1.264c-6.919-0.759-14.102-1.546-20.802-3.501
							c-0.145-0.042-0.304-0.105-0.454-0.153c1.23,0.573,2.475,1.115,3.751,1.588c5.616,2.082,11.626,3.047,17.556,3.709
							c10.195,1.139,20.507,1.599,30.769,1.46c14.094-0.19,26.425-3.92,31.653-5.066c3.333-0.731,6.833-1.303,10.105-1.068
							C967.472,1429.644,966.423,1428.817,965.149,1428.586z"/>
					</g>
				</g>
			</g>
			<g>
				<path style="fill:#5BB570;" d="M876.664,1435.919L876.664,1435.919c-2.596-0.636-5.186-1.359-7.847-1.605
					c-1.146-0.106-2.492-0.035-3.171,0.895c-0.372,0.508-0.453,1.178-0.383,1.804c0.205,1.83,1.593,3.358,3.221,4.217
					c1.628,0.86,3.479,1.198,5.304,1.44c57.623,7.643,79.42-2.719,79.085-4.47C952.625,1436.909,918.838,1446.71,876.664,1435.919z"
					/>
			</g>
		</g>
		<g>
			<g>
				<g>
					<path style="fill:#7EC082;" d="M619.876,519.329c17.727-4.263,35.571-8.044,53.517-11.262
						c5.649-1.013,11.313-1.95,16.983-2.851c2.989-42.144,7.68-84.167,14.189-125.912c5.927-38.022,13.41-75.787,22.221-113.244
						c-22.705,2.943-45.092,12.212-63.035,24.999c-28.56,20.352-44.9,64.255-56.95,95.42
						c-15.284,39.526-22.816,81.722-25.947,123.985c-0.47,6.349-0.796,12.733-1.042,19.131
						C593.064,525.769,606.464,522.555,619.876,519.329z"/>
				</g>
				<g>
					<path style="fill:#7EC082;" d="M691.676,525.319c0.124-1.936,0.307-3.867,0.437-5.802c-8.452,1.358-16.88,2.834-25.271,4.437
						c-17.656,3.375-35.119,7.491-52.618,11.575c-10.888,2.541-21.725,5.326-32.451,8.483
						c-2.328,80.044,13.677,162.515,62.906,224.997c5.015,6.365,10.633,12.698,18.129,15.774c9.489,3.894,20.274,1.917,30.234-0.537
						c1.487-0.366,2.959-0.786,4.441-1.171c-3.503-39.699-7.026-79.314-8.196-119.203
						C687.931,617.684,688.735,571.433,691.676,525.319z"/>
				</g>
				<g>
					<path style="fill:#7EC082;" d="M705.299,518.772c-0.553,8.112-1.121,16.223-1.542,24.343
						c-2.368,45.706-2.637,91.522-0.785,137.253c1.374,33.929,4.316,67.729,7.405,101.524c12-3.284,23.839-7.154,35.439-11.653
						c11.534-4.473,23.23-9.815,31.35-19.149c11.102-12.762,13.638-30.627,15.835-47.399
						c8.488-64.815,18.851-129.383,31.028-193.606C784.333,509.418,744.539,512.699,705.299,518.772z"/>
				</g>
				<g>
					<path style="fill:#7EC082;" d="M790.172,496.195c10.881-0.368,21.766-0.419,32.643-0.214
						c3.321-17.386,6.745-34.753,10.335-52.086c5.721-27.623,11.818-55.583,10.23-83.749c-1.588-28.165-11.923-57.114-33.797-74.928
						c-8.507-6.928-18.465-11.949-28.869-15.429c-12.925-4.322-26.773-5.506-40.612-4.284
						c-10.221,43.187-18.582,86.814-24.958,130.734c-5.215,35.92-9.058,72.037-11.64,108.244
						C732.209,500.092,761.149,497.175,790.172,496.195z"/>
				</g>
			</g>
		</g>
	</g>
	<path style="fill:#12080E;" d="M875.143,1722.735c-38.238-61.224-84.976-123.963-91.134-198.339
		c-6.042-72.977,24.991-147.71,80.853-195.028c3.672-3.111,7.466-6.059,11.351-8.884c0.28-1.494,0.65-2.972,1.203-4.396
		c0.986-2.54,2.392-4.832,4.05-6.946c-3.41-0.346-6.723-0.774-9.995-1.24c-58.351,41.531-95.26,109.754-100.622,181.057
		c-2.803,37.276,4.168,74.117,18.141,108.654c14.186,35.063,34.001,67.339,54.234,99.166
		c39.451,62.06,83.883,127.512,80.812,204.335c-3.494,87.421-60.516,161.553-103.339,233.881
		c-21.84,36.888-40.478,76.511-50.754,118.274c-9.638,39.174-11.672,81.565,2.597,119.905c3.533,9.491,7.926,18.609,13.15,27.283
		c4.33,7.192,15.627,0.634,11.276-6.591c-44.173-73.355-13.213-164.39,24.348-233.509c40.181-73.94,96.924-142.345,112.193-227.296
		c6.858-38.152,3.585-76.657-8.983-113.277C912.692,1785.306,894.378,1753.532,875.143,1722.735z"/>
</g>
</svg>
